<svg width="120" height="28" viewBox="0 0 120 28" fill="none" xmlns="http://www.w3.org/2000/svg">
<path d="M47.79 7V9.08H43.33V21H41.25V9.08H36.8V7H47.79Z" fill="#3F3D56"/>
<path d="M56.0543 11H58.1343V21H56.0443L55.9643 19.55C55.6709 20.0633 55.2743 20.4767 54.7743 20.79C54.2743 21.1033 53.6843 21.26 53.0043 21.26C52.2709 21.26 51.5809 21.1233 50.9343 20.85C50.2876 20.57 49.7176 20.1833 49.2243 19.69C48.7376 19.1967 48.3576 18.63 48.0843 17.99C47.8109 17.3433 47.6743 16.65 47.6743 15.91C47.6743 15.1967 47.8076 14.5267 48.0743 13.9C48.3409 13.2667 48.7109 12.7133 49.1843 12.24C49.6576 11.7667 50.2043 11.3967 50.8243 11.13C51.4509 10.8567 52.1209 10.72 52.8343 10.72C53.5609 10.72 54.2009 10.8867 54.7543 11.22C55.3143 11.5467 55.7776 11.9667 56.1443 12.48L56.0543 11ZM52.9543 19.25C53.5409 19.25 54.0543 19.1067 54.4943 18.82C54.9343 18.5267 55.2743 18.1333 55.5143 17.64C55.7609 17.1467 55.8843 16.6 55.8843 16C55.8843 15.3933 55.7609 14.8433 55.5143 14.35C55.2676 13.8567 54.9243 13.4667 54.4843 13.18C54.0509 12.8867 53.5409 12.74 52.9543 12.74C52.3743 12.74 51.8443 12.8867 51.3643 13.18C50.8843 13.4733 50.5043 13.8667 50.2243 14.36C49.9443 14.8533 49.8043 15.4 49.8043 16C49.8043 16.6067 49.9476 17.1567 50.2343 17.65C50.5276 18.1367 50.9109 18.5267 51.3843 18.82C51.8643 19.1067 52.3876 19.25 52.9543 19.25Z" fill="#3F3D56"/>
<path d="M63.1297 21.19C62.6031 21.1567 62.0897 21.05 61.5897 20.87C61.0897 20.69 60.6497 20.4467 60.2697 20.14C59.8964 19.8267 59.6164 19.46 59.4297 19.04L61.1997 18.28C61.2864 18.46 61.4364 18.6367 61.6497 18.81C61.8697 18.9833 62.1264 19.1267 62.4197 19.24C62.7131 19.3467 63.0197 19.4 63.3397 19.4C63.6531 19.4 63.9431 19.3567 64.2097 19.27C64.4831 19.1767 64.7064 19.0367 64.8797 18.85C65.0531 18.6633 65.1397 18.44 65.1397 18.18C65.1397 17.8867 65.0397 17.66 64.8397 17.5C64.6464 17.3333 64.4031 17.2067 64.1097 17.12C63.8164 17.0333 63.5231 16.95 63.2297 16.87C62.5764 16.7233 61.9764 16.5233 61.4297 16.27C60.8897 16.01 60.4597 15.68 60.1397 15.28C59.8197 14.8733 59.6597 14.3767 59.6597 13.79C59.6597 13.15 59.8331 12.5967 60.1797 12.13C60.5264 11.6567 60.9797 11.2933 61.5397 11.04C62.1064 10.7867 62.7097 10.66 63.3497 10.66C64.1497 10.66 64.8831 10.83 65.5497 11.17C66.2164 11.51 66.7264 11.9767 67.0797 12.57L65.4297 13.55C65.3297 13.35 65.1797 13.17 64.9797 13.01C64.7797 12.85 64.5531 12.7233 64.2997 12.63C64.0464 12.53 63.7831 12.4733 63.5097 12.46C63.1697 12.4467 62.8531 12.4867 62.5597 12.58C62.2731 12.6667 62.0431 12.8067 61.8697 13C61.6964 13.1933 61.6097 13.44 61.6097 13.74C61.6097 14.0333 61.7131 14.2533 61.9197 14.4C62.1264 14.54 62.3864 14.6533 62.6997 14.74C63.0197 14.8267 63.3464 14.9233 63.6797 15.03C64.2731 15.2167 64.8297 15.4467 65.3497 15.72C65.8697 15.9867 66.2897 16.3167 66.6097 16.71C66.9297 17.1033 67.0831 17.5833 67.0697 18.15C67.0697 18.7767 66.8797 19.3267 66.4997 19.8C66.1264 20.2733 65.6397 20.6333 65.0397 20.88C64.4397 21.1267 63.8031 21.23 63.1297 21.19Z" fill="#3F3D56"/>
<path d="M77.3321 21H74.9321L72.4721 16.76L70.8621 18.68V21H68.7821V6H70.8621V15.45L74.5821 11H77.3021L73.8921 15.07L77.3321 21Z" fill="#3F3D56"/>
<path d="M78.9188 11H80.9988V21H78.9188V11ZM79.9788 9.55C79.6588 9.55 79.3921 9.44667 79.1788 9.24C78.9655 9.03333 78.8588 8.77333 78.8588 8.46C78.8588 8.15333 78.9655 7.89667 79.1788 7.69C79.3921 7.47667 79.6555 7.37 79.9688 7.37C80.2755 7.37 80.5355 7.47667 80.7488 7.69C80.9621 7.89667 81.0688 8.15333 81.0688 8.46C81.0688 8.77333 80.9621 9.03333 80.7488 9.24C80.5421 9.44667 80.2855 9.55 79.9788 9.55Z" fill="#3F3D56"/>
<path d="M88.02 21H85.95L82.6 11H84.64L87 18.02L89.34 11H91.44L93.78 18.02L96.13 11H98.17L94.83 21H92.74L90.38 13.93L88.02 21Z" fill="#007FFF"/>
<path d="M103.733 21.26C102.813 21.26 101.973 21.0233 101.213 20.55C100.459 20.0767 99.8561 19.4433 99.4028 18.65C98.9561 17.85 98.7328 16.9667 98.7328 16C98.7328 15.2667 98.8628 14.5833 99.1228 13.95C99.3828 13.31 99.7395 12.75 100.193 12.27C100.653 11.7833 101.186 11.4033 101.793 11.13C102.399 10.8567 103.046 10.72 103.733 10.72C104.499 10.72 105.203 10.88 105.843 11.2C106.483 11.5133 107.029 11.95 107.483 12.51C107.936 13.0633 108.269 13.7033 108.483 14.43C108.696 15.15 108.759 15.9167 108.673 16.73H100.963C101.049 17.19 101.216 17.6067 101.463 17.98C101.716 18.3467 102.036 18.6367 102.423 18.85C102.816 19.0633 103.253 19.1733 103.733 19.18C104.239 19.18 104.699 19.0533 105.113 18.8C105.533 18.5467 105.876 18.1967 106.143 17.75L108.253 18.24C107.853 19.1267 107.249 19.8533 106.443 20.42C105.636 20.98 104.733 21.26 103.733 21.26ZM100.893 15.14H106.573C106.506 14.66 106.336 14.2267 106.063 13.84C105.796 13.4467 105.459 13.1367 105.053 12.91C104.653 12.6767 104.213 12.56 103.733 12.56C103.259 12.56 102.819 12.6733 102.413 12.9C102.013 13.1267 101.679 13.4367 101.413 13.83C101.153 14.2167 100.979 14.6533 100.893 15.14Z" fill="#007FFF"/>
<path d="M109.128 21L112.788 15.98L109.148 10.98H111.718L114.068 14.2L116.428 10.98H118.988L115.358 15.98L119.018 21H116.448L114.068 17.74L111.698 21H109.128Z" fill="#007FFF"/>
<rect width="28" height="28" rx="8" fill="#007FFF"/>
<path d="M7 14L11.6612 18.5L21 9.5" stroke="white" stroke-width="2.5" stroke-linecap="round" stroke-linejoin="round"/>
</svg>
